<?xml version="1.0" encoding="UTF-8"?>
<svg version="1.1" xmlns="http://www.w3.org/2000/svg" width="674" height="264">
<path d="M0 0 C222.42 0 444.84 0 674 0 C674 87.12 674 174.24 674 264 C451.58 264 229.16 264 0 264 C0 176.88 0 89.76 0 0 Z " fill="#F4F1E8" transform="translate(0,0)"/>
<path d="M0 0 C1.26166992 0.00580078 1.26166992 0.00580078 2.54882812 0.01171875 C3.80469727 0.00591797 3.80469727 0.00591797 5.0859375 0 C6.28766602 0.00193359 6.28766602 0.00193359 7.51367188 0.00390625 C8.25093506 0.00503418 8.98819824 0.00616211 9.74780273 0.00732422 C11.61132812 0.13671875 11.61132812 0.13671875 13.61132812 1.13671875 C15.47493403 7.03813746 15.83875035 12.9963187 15.61132812 19.13671875 C16.45695312 19.23984375 17.30257812 19.34296875 18.17382812 19.44921875 C21.61132812 20.13671875 21.61132812 20.13671875 25.23632812 21.76171875 C29.01903984 23.33545117 29.01903984 23.33545117 32.61132812 22.13671875 C34.40989011 20.84774933 36.15777676 19.48637317 37.86132812 18.07421875 C38.75335938 17.34074219 39.64539063 16.60726562 40.56445312 15.8515625 C41.23992187 15.28566406 41.91539063 14.71976563 42.61132812 14.13671875 C46.7906859 15.51501759 49.2765684 17.39590439 52.36132812 20.51171875 C53.52921875 21.66800781 53.52921875 21.66800781 54.72070312 22.84765625 C57.67336572 26.42257418 57.67336572 26.42257418 57.61132812 29.13671875 C55.45212565 32.10562215 53.00695669 34.68723541 50.51757812 37.3828125 C48.35533681 39.91954618 48.35533681 39.91954618 48.70117188 42.62109375 C49.15169922 43.86632812 49.15169922 43.86632812 49.61132812 45.13671875 C49.93230469 46.09191406 50.25328125 47.04710937 50.58398438 48.03125 C51.12345703 49.47564453 51.12345703 49.47564453 51.67382812 50.94921875 C52.31320313 52.66109375 52.95257813 54.37296875 53.61132812 56.13671875 C59.22132813 56.46671875 64.83132812 56.79671875 70.61132812 57.13671875 C71.58502083 61.03148957 71.7447922 64.14167688 71.73632812 68.13671875 C71.73890625 69.35359375 71.74148437 70.57046875 71.74414062 71.82421875 C71.61132812 75.13671875 71.61132812 75.13671875 70.61132812 79.13671875 C64.67132813 79.46671875 58.73132813 79.79671875 52.61132812 80.13671875 C52.28132813 82.11671875 51.95132813 84.09671875 51.61132812 86.13671875 C50.91840564 87.54026612 50.21092151 88.9367566 49.48632812 90.32421875 C48.50442506 92.61517611 48.50442506 92.61517611 48.61132812 95.13671875 C50.67071329 98.31742169 52.96913034 100.86936878 55.63476562 103.55859375 C57.61132812 106.13671875 57.61132812 106.13671875 57.64257812 108.671875 C56.41395993 111.60845864 54.89889385 113.49134108 52.73632812 115.82421875 C52.03765625 116.59121094 51.33898437 117.35820312 50.61914062 118.1484375 C48.61132812 120.13671875 48.61132812 120.13671875 45.61132812 122.13671875 C40.7595986 121.83411608 37.58503229 117.82574658 34.14648438 114.75390625 C31.75681362 112.88467138 31.75681362 112.88467138 29.08789062 113.265625 C26.62594821 114.13157636 24.28236963 115.08201488 21.92382812 116.19921875 C17.82129254 118.13671875 17.82129254 118.13671875 15.61132812 118.13671875 C15.55074219 119.35230469 15.49015625 120.56789063 15.42773438 121.8203125 C15.34334481 123.40496103 15.25869602 124.98959577 15.17382812 126.57421875 C15.13451172 127.37666016 15.09519531 128.17910156 15.0546875 129.00585938 C14.72460937 135.0234375 14.72460937 135.0234375 13.61132812 136.13671875 C12.13480148 136.23552672 10.65365577 136.2675112 9.17382812 136.26953125 C7.83191406 136.27146484 7.83191406 136.27146484 6.46289062 136.2734375 C5.521875 136.26957031 4.58085938 136.26570312 3.61132812 136.26171875 C2.6703125 136.26558594 1.72929688 136.26945313 0.75976562 136.2734375 C-0.13484375 136.27214844 -1.02945313 136.27085937 -1.95117188 136.26953125 C-2.77746094 136.26840332 -3.60375 136.26727539 -4.45507812 136.26611328 C-6.38867188 136.13671875 -6.38867188 136.13671875 -7.38867188 135.13671875 C-7.62568427 132.27793966 -7.81086369 129.43788578 -7.95117188 126.57421875 C-7.99435547 125.76791016 -8.03753906 124.96160156 -8.08203125 124.13085938 C-8.18842449 122.1330307 -8.28908075 120.13489805 -8.38867188 118.13671875 C-9.05253906 117.94335938 -9.71640625 117.75 -10.40039062 117.55078125 C-11.28339844 117.29039062 -12.16640625 117.03 -13.07617188 116.76171875 C-13.94628906 116.50648438 -14.81640625 116.25125 -15.71289062 115.98828125 C-18.31380307 115.16054561 -20.8544421 114.15041066 -23.38867188 113.13671875 C-29.32867187 118.08671875 -29.32867187 118.08671875 -35.38867188 123.13671875 C-40.0134646 121.28680166 -41.77584589 120.15839869 -45.13867188 116.76171875 C-45.91726562 115.99085938 -46.69585937 115.22 -47.49804688 114.42578125 C-50.45487181 110.84582379 -50.45487181 110.84582379 -50.38867188 108.13671875 C-48.55461922 105.48712155 -46.6035533 103.13140727 -44.4609375 100.734375 C-42.98636177 99.03411534 -42.98636177 99.03411534 -41.38867188 96.13671875 C-41.89899847 93.02717802 -41.89899847 93.02717802 -43.38867188 90.13671875 C-43.93806631 88.3474066 -44.48027694 86.55586536 -45.01367188 84.76171875 C-45.2740625 83.88773437 -45.53445312 83.01375 -45.80273438 82.11328125 C-45.99609375 81.46101563 -46.18945312 80.80875 -46.38867188 80.13671875 C-47.60425781 80.07613281 -48.81984375 80.01554687 -50.07226562 79.953125 C-51.65691415 79.86873543 -53.24154889 79.78408665 -54.82617188 79.69921875 C-55.62861328 79.65990234 -56.43105469 79.62058594 -57.2578125 79.58007812 C-63.27539063 79.25 -63.27539063 79.25 -64.38867188 78.13671875 C-64.4753662 76.64800015 -64.49570681 75.15527375 -64.48632812 73.6640625 C-64.48310547 72.76494141 -64.47988281 71.86582031 -64.4765625 70.93945312 C-64.46818359 69.99392578 -64.45980469 69.04839844 -64.45117188 68.07421875 C-64.44666016 67.12482422 -64.44214844 66.17542969 -64.4375 65.19726562 C-64.42567298 62.8436881 -64.40919213 60.49023398 -64.38867188 58.13671875 C-60.82780529 56.94976322 -57.41536164 56.78576457 -53.70117188 56.57421875 C-52.99927734 56.53103516 -52.29738281 56.48785156 -51.57421875 56.44335938 C-49.84591981 56.33754515 -48.11732078 56.23665294 -46.38867188 56.13671875 C-46.26621094 55.24726562 -46.14375 54.3578125 -46.01757812 53.44140625 C-45.15588499 48.91350321 -43.34517603 45.30217921 -41.38867188 41.13671875 C-44.68867187 37.17671875 -47.98867188 33.21671875 -51.38867188 29.13671875 C-49.55232786 24.54585871 -48.42923521 22.74541748 -45.07617188 19.38671875 C-44.31691406 18.608125 -43.55765625 17.82953125 -42.77539062 17.02734375 C-40.13271103 14.9339609 -38.76302875 14.12614083 -35.38867188 14.13671875 C-33.07226562 15.75390625 -33.07226562 15.75390625 -30.82617188 18.01171875 C-27.22008786 21.82321638 -27.22008786 21.82321638 -22.38867188 23.13671875 C-19.36413965 22.16816653 -19.36413965 22.16816653 -16.26367188 20.69921875 C-10.55215961 18.13671875 -10.55215961 18.13671875 -8.38867188 18.13671875 C-8.29779297 16.31333984 -8.29779297 16.31333984 -8.20507812 14.453125 C-8.12068856 12.86847647 -8.03603977 11.28384173 -7.95117188 9.69921875 C-7.91185547 8.89677734 -7.87253906 8.09433594 -7.83203125 7.26757812 C-7.43568493 0.04187974 -7.2414428 0.01167033 0 0 Z " fill="#50504E" transform="translate(85.388671875,63.86328125)"/>
<path d="M0 0 C0.66 0 1.32 0 2 0 C2.33 5.94 2.66 11.88 3 18 C5.18625 17.01 7.3725 16.02 9.625 15 C17.76561168 11.59605382 25.74791802 10.28943037 34.44140625 12.66796875 C40.18958156 15.16575271 44.25122571 19.69279419 47.1484375 25.171875 C48.32748168 29.0875997 48.29029408 32.74615626 48.25 36.8125 C48.26160156 37.96588867 48.26160156 37.96588867 48.2734375 39.14257812 C48.23413102 50.78712339 44.2140235 62.01608428 36.0625 70.5 C28.35393908 77.57719307 20.4845718 80.35326175 10.125 80.125 C9.34125 80.11597656 8.5575 80.10695313 7.75 80.09765625 C5.83319945 80.07428063 3.91655809 80.03841653 2 80 C2.11824064 85.07218134 2.24248853 90.1441664 2.37231445 95.21606445 C2.41563562 96.94160965 2.45731273 98.66719693 2.49731445 100.39282227 C2.55508526 102.87268764 2.61876003 105.35234172 2.68359375 107.83203125 C2.70030624 108.60400345 2.71701874 109.37597565 2.73423767 110.17134094 C2.82227895 113.35182933 2.98745195 115.96235584 4 119 C6.29629994 120.14814997 8.07698086 120.30769809 10.625 120.5625 C11.85089844 120.68818359 11.85089844 120.68818359 13.1015625 120.81640625 C13.72804688 120.87699219 14.35453125 120.93757813 15 121 C15 121.66 15 122.32 15 123 C10.62607891 123.67387598 6.25070694 124.33782758 1.875 125 C0.6375 125.19078125 -0.6 125.3815625 -1.875 125.578125 C-3.07382812 125.75859375 -4.27265625 125.9390625 -5.5078125 126.125 C-6.60754395 126.29257813 -7.70727539 126.46015625 -8.84033203 126.6328125 C-11.92631942 126.99143752 -14.89654724 127.06542193 -18 127 C-17.67 126.01 -17.34 125.02 -17 124 C-13.535 123.505 -13.535 123.505 -10 123 C-8.83132847 118.82080216 -8.86730739 114.77798283 -8.88647461 110.46777344 C-8.88632858 109.60887512 -8.88618256 108.74997681 -8.8860321 107.86505127 C-8.88672804 105.02980004 -8.89450555 102.19461474 -8.90234375 99.359375 C-8.90420906 97.39211055 -8.90563243 95.42484564 -8.90663147 93.45758057 C-8.91044773 88.28233556 -8.92027044 83.10711867 -8.93133545 77.93188477 C-8.9415687 72.64990621 -8.9461332 67.36792311 -8.95117188 62.0859375 C-8.96189349 51.72394599 -8.97895925 41.36197533 -9 31 C-10.423125 32.2375 -10.423125 32.2375 -11.875 33.5 C-14.75 36 -14.75 36 -17 36 C-15.44396229 32.18063472 -13.04395069 29.73955562 -10 27 C-9.34 27 -8.68 27 -8 27 C-8.08121094 26.01 -8.16242187 25.02 -8.24609375 24 C-8.84506651 13.46261511 -8.84506651 13.46261511 -6.4765625 9.36328125 C-4.5625 7.3125 -4.5625 7.3125 -2.62890625 5.61328125 C-0.77005499 3.7722607 -0.39434203 2.54933792 0 0 Z " fill="#535351" transform="translate(601,81)"/>
<path d="M0 0 C8.50342151 7.11914359 12.30549556 16.56372079 13.3203125 27.4296875 C13.60377757 36.06592339 12.95957055 44.43188889 7.09375 51.19921875 C2.04767584 55.84047726 -1.88182729 57.4653186 -8.85546875 57.3359375 C-15.41587338 56.30826027 -20.38099442 51.16287886 -24.4609375 46.25390625 C-31.37323519 36.13107435 -32.22515569 23.87727855 -31 12 C-29.49366833 6.4137386 -27.03178022 2.46242189 -22.4375 -1.0625 C-14.56110761 -5.50192117 -7.49552522 -4.83326679 0 0 Z " fill="#F3F0E7" transform="translate(426,101)"/>
<path d="M0 0 C8.50342151 7.11914359 12.30549556 16.56372079 13.3203125 27.4296875 C13.60377757 36.06592339 12.95957055 44.43188889 7.09375 51.19921875 C2.04767584 55.84047726 -1.88182729 57.4653186 -8.85546875 57.3359375 C-15.41587338 56.30826027 -20.38099442 51.16287886 -24.4609375 46.25390625 C-31.37323519 36.13107435 -32.22515569 23.87727855 -31 12 C-29.49366833 6.4137386 -27.03178022 2.46242189 -22.4375 -1.0625 C-14.56110761 -5.50192117 -7.49552522 -4.83326679 0 0 Z " fill="#F3F0E7" transform="translate(353,101)"/>
<path d="M0 0 C6.7986299 4.03128152 10.49280542 8.73737169 12.99609375 16.18359375 C14.41683775 24.22683802 12.43792908 30.45390899 7.99609375 37.18359375 C3.20203586 42.81661177 -2.6295969 46.60420724 -10.10546875 47.41015625 C-17.2356961 47.67968374 -22.45819761 45.99496336 -28.25390625 41.87109375 C-34.44781234 35.81795825 -37.03943978 29.9427571 -37.44140625 21.37109375 C-37.30119261 14.29906816 -35.12740726 9.56676824 -30.359375 4.40234375 C-21.58622079 -3.67767187 -10.67343234 -5.49843484 0 0 Z " fill="#555553" transform="translate(101.00390625,109.81640625)"/>
<path d="M0 0 C5.69504901 3.34624349 8.78628443 7.38898638 10.6484375 13.78125 C13.44093588 25.53906714 12.34480782 37.41337796 6.57421875 48.09375 C3.18322691 52.6761714 -0.88347756 54.91783359 -6.42578125 56.09375 C-14.01470765 56.83044099 -18.21095502 56.18581838 -25.42578125 53.09375 C-25.42578125 36.92375 -25.42578125 20.75375 -25.42578125 4.09375 C-17.09792617 -0.07017754 -9.25872751 -3.4589771 0 0 Z " fill="#F3F0E7" transform="translate(628.42578125,99.90625)"/>
<path d="M0 0 C0.33 0 0.66 0 1 0 C1.15298709 11.37204047 0.68416471 22.65019611 0 34 C-0.66 34 -1.32 34 -2 34 C-2.09796875 33.154375 -2.1959375 32.30875 -2.296875 31.4375 C-3.66200747 19.90138359 -3.66200747 19.90138359 -10.5 11.0625 C-15.71596322 8.84571563 -20.46972804 8.81694223 -26.0625 8.8125 C-26.87783203 8.80025391 -27.69316406 8.78800781 -28.53320312 8.77539062 C-29.31759766 8.77345703 -30.10199219 8.77152344 -30.91015625 8.76953125 C-31.62308838 8.76542236 -32.33602051 8.76131348 -33.07055664 8.75708008 C-35.32654047 8.89527954 -35.32654047 8.89527954 -38 11 C-38.30730986 13.99810667 -38.41966473 16.79089136 -38.40405273 19.79248047 C-38.41434761 21.15853424 -38.41434761 21.15853424 -38.42485046 22.55218506 C-38.44320786 25.57400949 -38.43926777 28.59531907 -38.43359375 31.6171875 C-38.43815178 33.71225149 -38.44345621 35.80731398 -38.44947815 37.90237427 C-38.45842722 42.2990729 -38.45596633 46.69559009 -38.44604492 51.09228516 C-38.43456239 56.73071472 -38.45474689 62.36851738 -38.48396206 68.00686455 C-38.50229825 72.33570344 -38.50203657 76.66439146 -38.49632454 80.99325943 C-38.49617096 83.07211307 -38.50224555 85.15097671 -38.51461601 87.22979355 C-38.52947258 90.13650678 -38.51888751 93.04205404 -38.50170898 95.94873047 C-38.51621094 97.24089981 -38.51621094 97.24089981 -38.53100586 98.55917358 C-38.4784696 103.38776824 -38.4784696 103.38776824 -36.129776 107.52761841 C-33.55678983 109.30640523 -31.85615065 109.58651839 -28.75 109.75 C-27.85796875 109.80671875 -26.9659375 109.8634375 -26.046875 109.921875 C-25.37140625 109.94765625 -24.6959375 109.9734375 -24 110 C-24 110.66 -24 111.32 -24 112 C-37.53 112 -51.06 112 -65 112 C-65 111.34 -65 110.68 -65 110 C-58.565 109.01 -58.565 109.01 -52 108 C-51.0608142 103.30407099 -50.83862798 98.98492941 -50.82299805 94.23413086 C-50.81642685 93.36200455 -50.80985565 92.48987823 -50.80308533 91.59132385 C-50.78343107 88.71582954 -50.77171146 85.84038708 -50.76171875 82.96484375 C-50.75764322 81.98149111 -50.7535677 80.99813847 -50.74936867 79.98498726 C-50.72854826 74.78678729 -50.71422537 69.58861345 -50.70483398 64.39038086 C-50.69373754 59.01776626 -50.65928905 53.64556217 -50.61966228 48.27309322 C-50.59356121 44.14245314 -50.58514828 40.01191228 -50.58155251 35.88119698 C-50.57667495 33.90001189 -50.56502786 31.91883157 -50.54651451 29.93772697 C-50.52224647 27.17030657 -50.52306457 24.40396814 -50.5300293 21.63647461 C-50.51081421 20.4074794 -50.51081421 20.4074794 -50.49121094 19.15365601 C-50.52463671 15.51664572 -50.67019672 13.43526044 -52.8999176 10.49256897 C-55.25413481 8.8193815 -56.40684519 8.48656171 -59.265625 8.46875 C-60.47798828 8.46101563 -60.47798828 8.46101563 -61.71484375 8.453125 C-62.96974609 8.47632813 -62.96974609 8.47632813 -64.25 8.5 C-65.07113281 8.48453125 -65.89226562 8.4690625 -66.73828125 8.453125 C-72.57524211 8.49012634 -77.23371341 9.50627898 -82 13 C-85.48490857 17.11957735 -86.88250071 21.19803839 -88.25 26.375 C-88.75273437 28.24285156 -88.75273437 28.24285156 -89.265625 30.1484375 C-89.62914062 31.55996094 -89.62914062 31.55996094 -90 33 C-90.66 33 -91.32 33 -92 33 C-91.4699529 22.32011479 -90.89918304 11.65627556 -90 1 C-89.01 1 -88.02 1 -87 1 C-86.34 1.99 -85.68 2.98 -85 4 C-82.45293338 4.29196061 -80.14894036 4.38889798 -77.6003418 4.35644531 C-76.4561528 4.35951187 -76.4561528 4.35951187 -75.28884888 4.36264038 C-72.75873092 4.36565653 -70.22925965 4.34714188 -67.69921875 4.328125 C-65.94285748 4.32506775 -64.18649378 4.32319137 -62.43013 4.32244873 C-58.74377197 4.31783989 -55.05763168 4.30339564 -51.37133789 4.28125 C-46.65019181 4.25302951 -41.92921781 4.24204514 -37.20799541 4.2375679 C-33.57827538 4.23340531 -29.94859001 4.22357982 -26.31888771 4.21169281 C-24.57859384 4.20600106 -22.83829667 4.20123876 -21.09799767 4.19742584 C-18.66122007 4.19053295 -16.22457628 4.1768846 -13.7878418 4.16113281 C-13.07025192 4.16001495 -12.35266205 4.15889709 -11.61332703 4.15774536 C-7.95369194 4.12649516 -4.55981084 3.86628422 -1 3 C-0.67 2.01 -0.34 1.02 0 0 Z " fill="#535350" transform="translate(314,49)"/>
<path d="M0 0 C2.43119623 1.87015094 3.64069173 3.28138345 5 6 C5.06936954 7.40341495 5.07618653 8.81020268 5.05004883 10.21508789 C5.03706253 11.08682144 5.02407623 11.95855499 5.01069641 12.85670471 C4.99298691 13.80246872 4.9752774 14.74823273 4.95703125 15.72265625 C4.93462451 17.72590135 4.91317115 19.72915731 4.89257812 21.73242188 C4.85562368 24.89019117 4.81278497 28.04740616 4.75317383 31.20483398 C4.6983102 34.25252051 4.66947702 37.29959639 4.64453125 40.34765625 C4.62074905 41.27925064 4.59696686 42.21084503 4.57246399 43.17066956 C4.5476194 49.46166769 5.62519622 54.60221251 9 60 C12.10953379 61.5547669 14.56266761 61.28644437 18 61 C25.71042143 57.53817813 29.15567788 49.48156865 32.1875 42 C36.63182694 28.85219945 37.49455654 14.76897692 38 1 C41.21451269 -0.60725635 44.43612536 -0.05748185 48 0 C48.0154612 1.09874199 48.0154612 1.09874199 48.03123474 2.21968079 C48.12918764 9.12069508 48.23169903 16.0216282 48.33933926 22.92249775 C48.39451792 26.47035451 48.44792977 30.01821959 48.49731445 33.56616211 C48.55415852 37.64445958 48.61866801 41.72260438 48.68359375 45.80078125 C48.70030624 47.07585037 48.71701874 48.35091949 48.73423767 49.66462708 C48.7641555 51.43612373 48.7641555 51.43612373 48.79467773 53.2434082 C48.81799416 54.80560844 48.81799416 54.80560844 48.84178162 56.39936829 C48.89468675 59.11411733 48.89468675 59.11411733 50 62 C53.10602826 62.30302715 54.55369908 62.32042117 57.1328125 60.46875 C57.79023437 59.8190625 58.44765625 59.169375 59.125 58.5 C62.69444444 55 62.69444444 55 66 55 C64.47925254 58.60047236 62.33755655 60.90006763 59.5625 63.625 C58.78003906 64.40101563 57.99757813 65.17703125 57.19140625 65.9765625 C53.50684664 69.37870489 51.07850091 70.50277074 46.00390625 70.390625 C42.59039759 69.7252237 41.04569561 67.66560337 39 65 C38.00544091 62.01632274 37.80440368 59.7995808 37.68359375 56.67578125 C37.64169922 55.64775391 37.59980469 54.61972656 37.55664062 53.56054688 C37.51732422 52.48869141 37.47800781 51.41683594 37.4375 50.3125 C37.39431641 49.22904297 37.35113281 48.14558594 37.30664062 47.02929688 C37.20053162 44.35299209 37.09847639 41.67659474 37 39 C36.76522949 39.80832275 36.53045898 40.61664551 36.28857422 41.44946289 C33.09920659 52.17858344 28.81420624 61.04944867 19.015625 66.9765625 C14.14651233 69.44886389 9.35141372 69.85136127 4 69 C0.14562138 66.96730763 -2.30317461 64.58559071 -4.06005859 60.58789062 C-5.36414852 55.60999308 -5.3571656 50.82213472 -5.4140625 45.6953125 C-5.43342865 44.61619598 -5.4527948 43.53707947 -5.4727478 42.42526245 C-5.53233942 38.99192105 -5.57884761 35.55854576 -5.625 32.125 C-5.66319853 29.79165236 -5.70225135 27.45831854 -5.7421875 25.125 C-5.83802417 19.41678968 -5.92313112 13.70849556 -6 8 C-10.39918705 7.72653789 -10.39918705 7.72653789 -14.265625 9.53125 C-14.92046875 10.1809375 -15.5753125 10.830625 -16.25 11.5 C-19.83333333 15 -19.83333333 15 -22 15 C-20.67441682 11.0847466 -19.07706617 8.692157 -16.125 5.8125 C-15.44695312 5.13832031 -14.76890625 4.46414062 -14.0703125 3.76953125 C-9.71377572 0.04592529 -5.63724484 -0.97233792 0 0 Z " fill="#535351" transform="translate(516,93)"/>
<path d="M0 0 C7.62076356 4.84810278 13.15922178 10.59614339 15.41796875 19.44921875 C17.37577697 32.18412082 15.85166474 44.30075001 8.55859375 55.05078125 C3.40213284 61.64990851 -3.95913069 65.66373125 -12.1640625 67.16796875 C-20.95764879 68.02306124 -27.87696734 67.42801983 -35.1640625 62.16796875 C-41.72385224 56.59214747 -45.5115226 49.57057026 -46.38720703 40.97851562 C-47.20562339 28.42775442 -46.30656755 18.92246226 -38.1640625 8.91796875 C-28.37038742 -1.19471855 -13.51449837 -6.28512697 0 0 Z M-30.8515625 7.35546875 C-35.87948848 13.47051386 -37.86039487 19.03223657 -37.6640625 26.91796875 C-37.65197754 27.70220215 -37.63989258 28.48643555 -37.62744141 29.29443359 C-37.24733579 40.52943405 -33.71819588 49.82473571 -25.5859375 57.6953125 C-20.85175478 61.81978987 -17.64328561 63.6237916 -11.24609375 63.41015625 C-6.10245621 62.81183443 -2.40818457 60.75224612 1.0859375 57.04296875 C7.31545999 49.03120319 7.78099637 40.03268441 6.8359375 30.16796875 C5.08459187 21.37166216 2.04091814 12.27664417 -5.22265625 6.54296875 C-14.03513301 0.85124064 -22.37421088 0.45529882 -30.8515625 7.35546875 Z " fill="#545452" transform="translate(432.1640625,94.83203125)"/>
<path d="M0 0 C7.62076356 4.84810278 13.15922178 10.59614339 15.41796875 19.44921875 C17.37577697 32.18412082 15.85166474 44.30075001 8.55859375 55.05078125 C3.40213284 61.64990851 -3.95913069 65.66373125 -12.1640625 67.16796875 C-20.95764879 68.02306124 -27.87696734 67.42801983 -35.1640625 62.16796875 C-41.72385224 56.59214747 -45.5115226 49.57057026 -46.38720703 40.97851562 C-47.20562339 28.42775442 -46.30656755 18.92246226 -38.1640625 8.91796875 C-28.37038742 -1.19471855 -13.51449837 -6.28512697 0 0 Z M-30.8515625 7.35546875 C-35.87948848 13.47051386 -37.86039487 19.03223657 -37.6640625 26.91796875 C-37.65197754 27.70220215 -37.63989258 28.48643555 -37.62744141 29.29443359 C-37.24733579 40.52943405 -33.71819588 49.82473571 -25.5859375 57.6953125 C-20.85175478 61.81978987 -17.64328561 63.6237916 -11.24609375 63.41015625 C-6.10245621 62.81183443 -2.40818457 60.75224612 1.0859375 57.04296875 C7.31545999 49.03120319 7.78099637 40.03268441 6.8359375 30.16796875 C5.08459187 21.37166216 2.04091814 12.27664417 -5.22265625 6.54296875 C-14.03513301 0.85124064 -22.37421088 0.45529882 -30.8515625 7.35546875 Z " fill="#545452" transform="translate(359.1640625,94.83203125)"/>
<path d="M0 0 C0.33 38.94 0.66 77.88 1 118 C8.16658497 117.67635236 8.16658497 117.67635236 12.375 113.9375 C13.674375 112.4834375 13.674375 112.4834375 15 111 C15.66 111 16.32 111 17 111 C15.98282358 116.39340055 12.53338335 120.01155494 8.29296875 123.33984375 C4.14889509 125.96847738 0.82540865 126.80423478 -4 126 C-6.63016161 123.8272578 -8.47336894 122.05326212 -10 119 C-10.08765264 117.58519196 -10.1132149 116.16628541 -10.10679626 114.7487793 C-10.10528061 113.85701996 -10.10376495 112.96526062 -10.10220337 112.04647827 C-10.095466 111.06563263 -10.08872864 110.08478699 -10.08178711 109.07421875 C-10.07872055 108.0432608 -10.07565399 107.01230286 -10.07249451 105.95010376 C-10.06532793 103.70636221 -10.05593201 101.46262696 -10.04459953 99.21890259 C-10.02727225 95.67286769 -10.01693053 92.12687746 -10.00868225 88.58081055 C-9.98416918 78.49686451 -9.94857494 68.41297868 -9.90405273 58.32910156 C-9.87733647 52.16712848 -9.86025018 46.00519026 -9.84918404 39.84317017 C-9.8429565 37.4891328 -9.83292934 35.13510242 -9.81910515 32.78109741 C-9.79998407 29.49594653 -9.79300625 26.2109801 -9.78881836 22.92578125 C-9.78005676 21.94493561 -9.77129517 20.96408997 -9.76226807 19.95352173 C-9.76422432 18.61588272 -9.76422432 18.61588272 -9.76622009 17.2512207 C-9.76307769 16.47398148 -9.75993528 15.69674225 -9.75669765 14.89595032 C-9.8347299 12.75770188 -9.8347299 12.75770188 -12 11 C-16.34906427 11.32823127 -20.0342632 12.19739236 -24 14 C-22.77975895 10.33927685 -21.92918955 10.10435455 -18.6328125 8.30078125 C-17.74722656 7.81416016 -16.86164063 7.32753906 -15.94921875 6.82617188 C-15.01722656 6.32666016 -14.08523438 5.82714844 -13.125 5.3125 C-12.20074219 4.80138672 -11.27648437 4.29027344 -10.32421875 3.76367188 C-3.39986649 0 -3.39986649 0 0 0 Z " fill="#51514F" transform="translate(477,37)"/>
<path d="M0 0 C5.67476113 1.96434039 9.31400331 5.62800662 12 11 C12.80774791 16.50086551 12.65674805 20.81906084 9.375 25.4375 C5.45159184 29.97508654 2.07562557 31.76937494 -3.9375 32.4375 C-8.28266752 32.23019239 -11.70661796 30.83774423 -15 28 C-18.41050763 24.1847099 -20.30193786 20.5254449 -20.5625 15.375 C-20.29059808 10.98680516 -18.89367224 8.36291639 -16 5 C-10.58420856 0.22894564 -7.09115125 -0.64682799 0 0 Z " fill="#F2EFE6" transform="translate(93,116)"/>
<path d="M0 0 C0.99 0 1.98 0 3 0 C3 72.27 3 144.54 3 219 C2.01 219 1.02 219 0 219 C0 146.73 0 74.46 0 0 Z " fill="#535351" transform="translate(183,23)"/>
<path d="M0 0 C6.7986299 4.03128152 10.49280542 8.73737169 12.99609375 16.18359375 C14.41683775 24.22683802 12.43792908 30.45390899 7.99609375 37.18359375 C3.20203586 42.81661177 -2.6295969 46.60420724 -10.10546875 47.41015625 C-17.2356961 47.67968374 -22.45819761 45.99496336 -28.25390625 41.87109375 C-34.44781234 35.81795825 -37.03943978 29.9427571 -37.44140625 21.37109375 C-37.30119261 14.29906816 -35.12740726 9.56676824 -30.359375 4.40234375 C-21.58622079 -3.67767187 -10.67343234 -5.49843484 0 0 Z M-29.40234375 8.8125 C-33.63871671 14.80651707 -33.78777332 21.09275024 -33.00390625 28.18359375 C-30.80429824 34.13141272 -26.17159338 38.64458526 -21.00390625 42.18359375 C-15.12372367 44.14365461 -8.40119782 44.01174902 -2.56640625 41.99609375 C2.48956744 38.41991724 7.01243959 34.13455623 8.99609375 28.18359375 C9.69155054 20.92103787 9.90788054 14.77974128 5.42578125 8.765625 C1.56317111 4.49142525 -2.38551698 1.52271266 -8.140625 0.77734375 C-17.26441829 0.53645152 -23.30896675 1.71490724 -29.40234375 8.8125 Z " fill="#E8E6DD" transform="translate(101.00390625,109.81640625)"/>
<path d="M0 0 C4.49524833 0.88299521 5.93952397 1.88558105 8.5 5.6875 C9.20200244 8.84365732 9.20200244 11.53134268 8.5 14.6875 C5.93952397 18.48941895 4.49524833 19.49200479 0 20.375 C-3.77582884 19.63331933 -5.3785606 18.62018021 -7.61328125 15.46484375 C-9.19067237 12.30311266 -9.11407281 10.12630775 -8.5 6.6875 C-6.52696957 2.73274738 -4.43736044 0.87162437 0 0 Z " fill="#F1EEE5" transform="translate(476.5,207.3125)"/>
<path d="M0 0 C2.75329021 1.79562405 4.52627461 3.05254922 6 6 C6.12339449 10.56559624 5.83352347 13.99486876 2.875 17.5625 C-0.78252663 19.39126332 -2.96261331 19.66066328 -7 19 C-9.85670088 16.80253778 -10.82095936 15.14253769 -11.37890625 11.58203125 C-11.56245494 7.57356472 -11.51360941 4.86286381 -9.4375 1.375 C-6.02395694 -0.55058839 -3.86308787 -0.54218777 0 0 Z " fill="#F1EEE6" transform="translate(335,208)"/>
<path d="M0 0 C2.97 0 5.94 0 9 0 C12 3 12 3 12.3125 5.4375 C12 8 12 8 10.8125 10 C10.544375 10.66 10.27625 11.32 10 12 C11.31865712 14.64225405 11.31865712 14.64225405 13 17 C13 17.66 13 18.32 13 19 C12.01 19 11.02 19 10 19 C7 13.25 7 13.25 7 11 C5.68 11 4.36 11 3 11 C3 13.64 3 16.28 3 19 C2.01 19 1.02 19 0 19 C0 12.73 0 6.46 0 0 Z " fill="#6C6B68" transform="translate(220,208)"/>
<path d="M0 0 C2.97 0 5.94 0 9 0 C12 3 12 3 12.375 5.5 C12 8 12 8 9 11 C10.32 13.64 11.64 16.28 13 19 C12.01 19 11.02 19 10 19 C9.4225 17.865625 8.845 16.73125 8.25 15.5625 C6.64507365 12.62689703 6.64507365 12.62689703 3.75 11.0625 C3.1725 11.041875 2.595 11.02125 2 11 C2 13.64 2 16.28 2 19 C1.34 19 0.68 19 0 19 C0 12.73 0 6.46 0 0 Z " fill="#656461" transform="translate(364,208)"/>
<path d="M0 0 C9 0 9 0 12 2 C12.4375 5.4375 12.4375 5.4375 12 9 C10.3125 10.9375 10.3125 10.9375 8 12 C5.25 12.1875 5.25 12.1875 3 12 C3 14.31 3 16.62 3 19 C2.01 19 1.02 19 0 19 C0 12.73 0 6.46 0 0 Z " fill="#757470" transform="translate(453,208)"/>
<path d="M0 0 C5.04574923 1.26143731 5.53470277 2.76327939 8.25 7.0625 C8.95640625 8.16722656 9.6628125 9.27195313 10.390625 10.41015625 C10.92171875 11.26480469 11.4528125 12.11945313 12 13 C12.33 8.71 12.66 4.42 13 0 C13.66 0 14.32 0 15 0 C15 6.27 15 12.54 15 19 C14.01 19 13.02 19 12 19 C10.45704199 16.85224966 9.1240944 14.78165246 7.8125 12.5 C7.44447266 11.87996094 7.07644531 11.25992188 6.69726562 10.62109375 C5.7883265 9.0865212 4.8928753 7.5439744 4 6 C3.67 10.29 3.34 14.58 3 19 C2.01 19 1.02 19 0 19 C0 12.73 0 6.46 0 0 Z " fill="#787773" transform="translate(518,208)"/>
<path d="M0 0 C0.99 0 1.98 0 3 0 C5.31 5.94 7.62 11.88 10 18 C9.01 18.33 8.02 18.66 7 19 C6.34 17.35 5.68 15.7 5 14 C2.69 14 0.38 14 -2 14 C-2.66 15.65 -3.32 17.3 -4 19 C-4.99 18.67 -5.98 18.34 -7 18 C-4.69 12.06 -2.38 6.12 0 0 Z " fill="#5F5F5C" transform="translate(564,208)"/>
<path d="M0 0 C0.99 0 1.98 0 3 0 C5.31 5.94 7.62 11.88 10 18 C9.01 18.33 8.02 18.66 7 19 C6.34 17.35 5.68 15.7 5 14 C2.69 14 0.38 14 -2 14 C-2.66 15.65 -3.32 17.3 -4 19 C-4.99 18.67 -5.98 18.34 -7 18 C-4.69 12.06 -2.38 6.12 0 0 Z " fill="#5F5F5C" transform="translate(255,208)"/>
<path d="M0 0 C2.75329021 1.79562405 4.52627461 3.05254922 6 6 C6.12339449 10.56559624 5.83352347 13.99486876 2.875 17.5625 C-0.78252663 19.39126332 -2.96261331 19.66066328 -7 19 C-9.85670088 16.80253778 -10.82095936 15.14253769 -11.37890625 11.58203125 C-11.56245494 7.57356472 -11.51360941 4.86286381 -9.4375 1.375 C-6.02395694 -0.55058839 -3.86308787 -0.54218777 0 0 Z M-7.875 3.5625 C-9.42190908 6.91413635 -9.39126176 9.34822358 -9 13 C-8.04826062 15.52040427 -8.04826062 15.52040427 -6 17 C-3 17.58333333 -3 17.58333333 0 17 C2.14931513 15.39053632 2.90631341 14.5070098 3.3984375 11.84375 C3.39070313 11.0703125 3.38296875 10.296875 3.375 9.5 C3.38273437 8.7265625 3.39046875 7.953125 3.3984375 7.15625 C2.90631341 4.4929902 2.14931513 3.60946368 0 2 C-3.41688319 1.50170453 -5.17143446 1.30952872 -7.875 3.5625 Z " fill="#5C5C59" transform="translate(335,208)"/>
<path d="M0 0 C4.49524833 0.88299521 5.93952397 1.88558105 8.5 5.6875 C9.20200244 8.84365732 9.20200244 11.53134268 8.5 14.6875 C5.93952397 18.48941895 4.49524833 19.49200479 0 20.375 C-3.77582884 19.63331933 -5.3785606 18.62018021 -7.61328125 15.46484375 C-9.19067237 12.30311266 -9.11407281 10.12630775 -8.5 6.6875 C-6.52696957 2.73274738 -4.43736044 0.87162437 0 0 Z M-4.1640625 3.9296875 C-5.85152036 6.15002679 -5.9026536 7.42213981 -5.875 10.1875 C-5.88273437 10.9609375 -5.89046875 11.734375 -5.8984375 12.53125 C-5.40631341 15.1945098 -4.64931513 16.07803632 -2.5 17.6875 C0.5 18.27083333 0.5 18.27083333 3.5 17.6875 C5.7288277 15.90443784 6.37382488 14.5584588 6.78125 11.74609375 C6.91375481 8.74817237 6.86447879 6.3354623 5.375 3.6875 C2.14002954 1.96218242 -1.15111129 1.68058307 -4.1640625 3.9296875 Z " fill="#696966" transform="translate(476.5,207.3125)"/>
<path d="M0 0 C0.99 0 1.98 0 3 0 C3.06058594 1.07121094 3.12117188 2.14242187 3.18359375 3.24609375 C3.26798537 4.64324391 3.35263406 6.04037857 3.4375 7.4375 C3.47681641 8.14455078 3.51613281 8.85160156 3.55664062 9.58007812 C3.47624438 13.08690419 3.47624438 13.08690419 5 16 C7.31 16 9.62 16 12 16 C12.33 10.72 12.66 5.44 13 0 C13.66 0 14.32 0 15 0 C15.10826289 2.4178712 15.18739789 4.83087556 15.25 7.25 C15.30027344 8.27287109 15.30027344 8.27287109 15.3515625 9.31640625 C15.41836702 12.75683911 15.2596674 14.64415949 13.20703125 17.45703125 C10.02465145 19.68188084 7.78678486 19.48195444 4 19 C1.38406847 17.16884793 1.03010545 16.09031634 0 13 C-0.06937062 10.77181559 -0.08457084 8.54165476 -0.0625 6.3125 C-0.05347656 5.13300781 -0.04445313 3.95351562 -0.03515625 2.73828125 C-0.02355469 1.83464844 -0.01195312 0.93101562 0 0 Z " fill="#61605E" transform="translate(344,208)"/>
<path d="M0 0 C3.63 0 7.26 0 11 0 C11 0.66 11 1.32 11 2 C8.36 2 5.72 2 3 2 C3 3.98 3 5.96 3 8 C5.31 8 7.62 8 10 8 C10 8.66 10 9.32 10 10 C7.69 10 5.38 10 3 10 C3 12.31 3 14.62 3 17 C5.64 17 8.28 17 11 17 C11 17.66 11 18.32 11 19 C7.37 19 3.74 19 0 19 C0 12.73 0 6.46 0 0 Z " fill="#575755" transform="translate(236,208)"/>
<path d="M0 0 C0.66 0 1.32 0 2 0 C2 2.64 2 5.28 2 8 C5.3 8 8.6 8 12 8 C12 5.36 12 2.72 12 0 C12.66 0 13.32 0 14 0 C14 6.27 14 12.54 14 19 C13.34 19 12.68 19 12 19 C12 16.03 12 13.06 12 10 C8.7 10 5.4 10 2 10 C2 12.97 2 15.94 2 19 C1.34 19 0.68 19 0 19 C0 12.73 0 6.46 0 0 Z " fill="#555553" transform="translate(284,208)"/>
<path d="M0 0 C3.63 0 7.26 0 11 0 C11 0.66 11 1.32 11 2 C8.03 2 5.06 2 2 2 C2 3.98 2 5.96 2 8 C4.64 8 7.28 8 10 8 C10 8.66 10 9.32 10 10 C7.36 10 4.72 10 2 10 C2 12.31 2 14.62 2 17 C4.97 17 7.94 17 11 17 C11 17.66 11 18.32 11 19 C7.37 19 3.74 19 0 19 C0 12.73 0 6.46 0 0 Z " fill="#525250" transform="translate(504,208)"/>
<path d="M0 0 C0.66 0 1.32 0 2 0 C2.06058594 0.98742187 2.12117188 1.97484375 2.18359375 2.9921875 C2.26738281 4.27351562 2.35117187 5.55484375 2.4375 6.875 C2.51871094 8.15117187 2.59992188 9.42734375 2.68359375 10.7421875 C2.79206027 13.88300152 2.79206027 13.88300152 4 16 C5.99954746 16.04254356 8.00041636 16.04080783 10 16 C11.99616554 14.00383446 11.40983427 10.18298037 11.5625 7.4375 C11.60568359 6.72658203 11.64886719 6.01566406 11.69335938 5.28320312 C11.79971777 3.52238088 11.90038846 1.7612168 12 0 C12.66 0 13.32 0 14 0 C14.10792837 2.60527105 14.18724878 5.20608311 14.25 7.8125 C14.30027344 8.91948242 14.30027344 8.91948242 14.3515625 10.04882812 C14.4504267 15.51107529 14.4504267 15.51107529 12.171875 17.984375 C9.1967631 19.37561438 7.2467744 19.47348793 4 19 C1.828125 17.45703125 1.828125 17.45703125 0 15 C-0.2911521 12.26317029 -0.38322418 9.96059961 -0.25 7.25 C-0.23195313 6.55261719 -0.21390625 5.85523438 -0.1953125 5.13671875 C-0.14838554 3.42388461 -0.07664605 1.71176176 0 0 Z " fill="#595957" transform="translate(400,208)"/>
<path d="M0 0 C0 0.99 0 1.98 0 3 C-1.6396875 2.9071875 -1.6396875 2.9071875 -3.3125 2.8125 C-6.82823915 2.7228087 -6.82823915 2.7228087 -8.9375 4.0625 C-10.5957539 7.08637476 -10.30144019 9.62386983 -10 13 C-8.39519216 16.12606964 -8.39519216 16.12606964 -6.0546875 16.51171875 C-5.33539063 16.56972656 -4.61609375 16.62773437 -3.875 16.6875 C-2.59625 16.790625 -1.3175 16.89375 0 17 C0 17.66 0 18.32 0 19 C-7.87155963 19.60550459 -7.87155963 19.60550459 -11.5625 17.625 C-13.82769935 13.48854901 -13.83905521 9.59624046 -13 5 C-9.41387839 -0.60331501 -6.13079617 -0.519559 0 0 Z " fill="#5B5B58" transform="translate(280,208)"/>
<path d="M0 0 C0.99 0 1.98 0 3 0 C3 5.61 3 11.22 3 17 C5.64 17 8.28 17 11 17 C11 17.66 11 18.32 11 19 C7.37 19 3.74 19 0 19 C0 12.73 0 6.46 0 0 Z " fill="#696966" transform="translate(576,208)"/>
<path d="M0 0 C0.99 0 1.98 0 3 0 C3 5.61 3 11.22 3 17 C5.64 17 8.28 17 11 17 C11 17.66 11 18.32 11 19 C7.37 19 3.74 19 0 19 C0 12.73 0 6.46 0 0 Z " fill="#696966" transform="translate(419,208)"/>
<path d="M0 0 C4.39158329 1.4638611 4.87947433 3.97831338 7 8 C8.32 5.36 9.64 2.72 11 0 C11.99 0.33 12.98 0.66 14 1 C13.65066406 1.6290625 13.30132812 2.258125 12.94140625 2.90625 C10.01558215 8.40978315 8.34617589 12.76883393 8 19 C7.34 19 6.68 19 6 19 C5.9071875 17.2984375 5.9071875 17.2984375 5.8125 15.5625 C5.27770656 11.01675577 3.43148873 7.74128762 1.05859375 3.8828125 C0 2 0 2 0 0 Z " fill="#5D5D5A" transform="translate(308,208)"/>
<path d="M0 0 C3.3 0 6.6 0 10 0 C10 0.66 10 1.32 10 2 C7.36 2 4.72 2 2 2 C2 4.31 2 6.62 2 9 C4.64 9 7.28 9 10 9 C10 9.66 10 10.32 10 11 C7.36 11 4.72 11 2 11 C2 13.64 2 16.28 2 19 C1.34 19 0.68 19 0 19 C0 12.73 0 6.46 0 0 Z " fill="#4F4F4D" transform="translate(387,208)"/>
<path d="M0 0 C4.62 0 9.24 0 14 0 C14 0.66 14 1.32 14 2 C12.02 2 10.04 2 8 2 C8 7.61 8 13.22 8 19 C7.34 19 6.68 19 6 19 C6 13.39 6 7.78 6 2 C4.02 2 2.04 2 0 2 C0 1.34 0 0.68 0 0 Z " fill="#50504E" transform="translate(536,208)"/>
<path d="M0 0 C4.62 0 9.24 0 14 0 C14 0.66 14 1.32 14 2 C12.02 2 10.04 2 8 2 C8 7.61 8 13.22 8 19 C7.34 19 6.68 19 6 19 C6 13.39 6 7.78 6 2 C4.02 2 2.04 2 0 2 C0 1.34 0 0.68 0 0 Z " fill="#50504E" transform="translate(487,208)"/>
<path d="M0 0 C2.97 0 5.94 0 9 0 C8.67 0.99 8.34 1.98 8 3 C5.03 2.505 5.03 2.505 2 2 C2 4.31 2 6.62 2 9 C3.65 9 5.3 9 7 9 C6.67 9.66 6.34 10.32 6 11 C4.68 11 3.36 11 2 11 C2 13.64 2 16.28 2 19 C1.34 19 0.68 19 0 19 C0 12.73 0 6.46 0 0 Z " fill="#535350" transform="translate(364,208)"/>
<path d="M0 0 C0.99 0 1.98 0 3 0 C4.2539185 6.52037618 4.2539185 6.52037618 2.875 9.125 C2.441875 10.053125 2.441875 10.053125 2 11 C3.31865712 13.64225405 3.31865712 13.64225405 5 16 C5 16.66 5 17.32 5 18 C4.01 18 3.02 18 2 18 C1.76925781 17.43410156 1.53851563 16.86820313 1.30078125 16.28515625 C0.31565123 14.06958715 -0.66103202 12.02342445 -2 10 C-4.6147267 8.87184635 -4.6147267 8.87184635 -7 9 C-7 6.36 -7 3.72 -7 1 C-6.67 1 -6.34 1 -6 1 C-6 3.31 -6 5.62 -6 8 C-3.69 7.34 -1.38 6.68 1 6 C0.67 4.02 0.34 2.04 0 0 Z " fill="#5C5B59" transform="translate(228,209)"/>
<path d="M0 0 C0.99 0 1.98 0 3 0 C3 6.27 3 12.54 3 19 C2.01 19 1.02 19 0 19 C0 12.73 0 6.46 0 0 Z " fill="#72726E" transform="translate(552,208)"/>
<path d="M0 0 C0.66 0 1.32 0 2 0 C2 5.61 2 11.22 2 17 C4.97 17 7.94 17 11 17 C11 17.66 11 18.32 11 19 C7.37 19 3.74 19 0 19 C0 12.73 0 6.46 0 0 Z " fill="#51514F" transform="translate(433,208)"/>
<path d="M0 0 C2.375 -0.125 2.375 -0.125 5 0 C5.66 0.66 6.32 1.32 7 2 C6.44444444 6.55555556 6.44444444 6.55555556 5 8 C3.33382885 8.04063832 1.66611905 8.042721 0 8 C0 5.36 0 2.72 0 0 Z " fill="#F2EFE6" transform="translate(456,210)"/>
<path d="M0 0 C1.99954746 -0.04254356 4.00041636 -0.04080783 6 0 C7 1 7 1 7.125 3.5 C7 6 7 6 6 7 C4.00041636 7.04080783 1.99954746 7.04254356 0 7 C0 4.69 0 2.38 0 0 Z " fill="#ECE9E0" transform="translate(366,210)"/>
<path d="M0 0 C0.33 0 0.66 0 1 0 C1.33 3.3 1.66 6.6 2 10 C2.33 10 2.66 10 3 10 C3 12.31 3 14.62 3 17 C5.64 17 8.28 17 11 17 C11 17.66 11 18.32 11 19 C7.37 19 3.74 19 0 19 C0 12.73 0 6.46 0 0 Z " fill="#696966" transform="translate(236,208)"/>
<path d="M0 0 C0.33 0 0.66 0 1 0 C1.25 2.8125 1.25 2.8125 1 6 C-1.2206051 8.467339 -2.43569203 8.96152446 -5.75 9.1875 C-6.4925 9.125625 -7.235 9.06375 -8 9 C-8 11.31 -8 13.62 -8 16 C-8.66 16 -9.32 16 -10 16 C-10 13.36 -10 10.72 -10 8 C-9.44570313 7.84144531 -8.89140625 7.68289062 -8.3203125 7.51953125 C-3.52015703 6.09623213 -3.52015703 6.09623213 -0.5 2.3125 C-0.335 1.549375 -0.17 0.78625 0 0 Z " fill="#5A5A57" transform="translate(464,211)"/>
<path d="M0 0 C2.375 -0.125 2.375 -0.125 5 0 C5.66 0.66 6.32 1.32 7 2 C6.46428571 5.53571429 6.46428571 5.53571429 5 7 C3.33382885 7.04063832 1.66611905 7.042721 0 7 C0 4.69 0 2.38 0 0 Z " fill="#F0EDE4" transform="translate(223,210)"/>
<path d="M0 0 C3.875 1.75 3.875 1.75 5 4 C4.94921875 6.09375 4.94921875 6.09375 4.6875 8.5 C4.60886719 9.2940625 4.53023438 10.088125 4.44921875 10.90625 C4 13 4 13 2 15 C1.01 14.67 0.02 14.34 -1 14 C-0.34 13.34 0.32 12.68 1 12 C1.28082344 9.89250534 1.28082344 9.89250534 1.1875 7.5625 C1.18105469 6.78003906 1.17460937 5.99757812 1.16796875 5.19140625 C1.07555669 2.82200323 1.07555669 2.82200323 0 0 Z " fill="#666563" transform="translate(336,210)"/>
<path d="M0 0 C0.99 0 1.98 0 3 0 C3 4.62 3 9.24 3 14 C2.01 13.67 1.02 13.34 0 13 C0 8.71 0 4.42 0 0 Z " fill="#71706D" transform="translate(344,208)"/>
<path d="M0 0 C0.66 0 1.32 0 2 0 C2 6.27 2 12.54 2 19 C1.01 19 0.02 19 -1 19 C-1.33 18.01 -1.66 17.02 -2 16 C-1.34 15.67 -0.68 15.34 0 15 C0 10.05 0 5.1 0 0 Z " fill="#50504E" transform="translate(531,208)"/>
<path d="M0 0 C6.32491289 0.47735192 6.32491289 0.47735192 8.9375 2.5 C10.54532609 6.28312021 10.23381522 9.94720285 10 14 C9.01 14.495 9.01 14.495 8 15 C7.95101563 14.30132812 7.90203125 13.60265625 7.8515625 12.8828125 C7.77679688 11.97273437 7.70203125 11.06265625 7.625 10.125 C7.55539062 9.22007812 7.48578125 8.31515625 7.4140625 7.3828125 C7.20431868 4.82058097 7.20431868 4.82058097 5 3 C3.01178687 2.60235737 1.01055661 2.26224651 -1 2 C-0.67 1.34 -0.34 0.68 0 0 Z " fill="#545452" transform="translate(475,208)"/>
<path d="M0 0 C0.66 0.33 1.32 0.66 2 1 C0.82713348 9.35010941 0.82713348 9.35010941 -2.625 12.0625 C-3.40875 12.371875 -4.1925 12.68125 -5 13 C-4.54803755 11.39402675 -4.08817673 9.79027492 -3.625 8.1875 C-3.36976563 7.29417969 -3.11453125 6.40085938 -2.8515625 5.48046875 C-2 3 -2 3 0 0 Z " fill="#62625F" transform="translate(552,126)"/>
<path d="M0 0 C0.66 0.99 1.32 1.98 2 3 C-0.56984291 5.46704919 -1.95853694 5.99490804 -5.5625 6.4375 C-6.696875 6.293125 -7.83125 6.14875 -9 6 C-9.99 4.68 -10.98 3.36 -12 2 C-8.7 2.33 -5.4 2.66 -2 3 C-1.34 2.01 -0.68 1.02 0 0 Z " fill="#60605D" transform="translate(482,221)"/>
<path d="M0 0 C0.66 0 1.32 0 2 0 C3.2890625 1.6796875 3.2890625 1.6796875 4.625 3.875 C5.29402344 4.95394531 5.29402344 4.95394531 5.9765625 6.0546875 C7 8 7 8 7 10 C7.66 10.33 8.32 10.66 9 11 C7.68 11 6.36 11 5 11 C3.515625 9.35546875 3.515625 9.35546875 2.25 7.1875 C1.82203125 6.47980469 1.3940625 5.77210938 0.953125 5.04296875 C0 3 0 3 0 0 Z " fill="#646461" transform="translate(523,213)"/>
<path d="M0 0 C1.8871875 0.061875 1.8871875 0.061875 3.8125 0.125 C3.8125 1.115 3.8125 2.105 3.8125 3.125 C2.74 3.063125 1.6675 3.00125 0.5625 2.9375 C-3.29616187 3.13043309 -4.47567788 3.52165076 -7.1875 6.125 C-7.1875 4.805 -7.1875 3.485 -7.1875 2.125 C-4.09861478 0.06574319 -3.47814073 -0.1140374 0 0 Z " fill="#636360" transform="translate(276.1875,207.875)"/>
<path d="M0 0 C1.9451 2.91765 2.45276317 4.62537285 3 8 C1.35 8 -0.3 8 -2 8 C-1.47731534 5.23723823 -0.89130413 2.6739124 0 0 Z " fill="#E9E6DD" transform="translate(565,211)"/>
<path d="M0 0 C1.9451 2.91765 2.45276317 4.62537285 3 8 C1.35 8 -0.3 8 -2 8 C-1.47731534 5.23723823 -0.89130413 2.6739124 0 0 Z " fill="#E9E6DD" transform="translate(256,211)"/>
<path d="M0 0 C0.99 0.33 1.98 0.66 3 1 C1.68 3.64 0.36 6.28 -1 9 C-1.99 8.67 -2.98 8.34 -4 8 C-2.68 5.36 -1.36 2.72 0 0 Z " fill="#666663" transform="translate(319,208)"/>
<path d="M0 0 C0.66 0 1.32 0 2 0 C1.51421457 3.12290635 1.0013988 5.99580359 0 9 C-0.99 9.33 -1.98 9.66 -3 10 C-2.01 6.7 -1.02 3.4 0 0 Z " fill="#696865" transform="translate(563,210)"/>
<path d="M0 0 C0.66 0 1.32 0 2 0 C1.51421457 3.12290635 1.0013988 5.99580359 0 9 C-0.99 9.33 -1.98 9.66 -3 10 C-2.01 6.7 -1.02 3.4 0 0 Z " fill="#696865" transform="translate(254,210)"/>
<path d="M0 0 C0.99 0.33 1.98 0.66 3 1 C4.6875 4.5625 4.6875 4.5625 6 8 C5.34 8.66 4.68 9.32 4 10 C3.32845067 8.71086513 2.66291141 7.41859796 2 6.125 C1.62875 5.40570313 1.2575 4.68640625 0.875 3.9453125 C0 2 0 2 0 0 Z " fill="#646461" transform="translate(308,208)"/>
<path d="M0 0 C0.66 0.33 1.32 0.66 2 1 C0.71283353 2.00578589 -0.57988658 3.00446798 -1.875 4 C-2.95394531 4.8353125 -2.95394531 4.8353125 -4.0546875 5.6875 C-6 7 -6 7 -8 7 C-6.88424427 3.65273281 -6.48655378 3.37920252 -3.5625 1.75 C-2.386875 1.1725 -1.21125 0.595 0 0 Z " fill="#60605D" transform="translate(461,44)"/>
<path d="M0 0 C2.32472205 2.85306797 3.7508258 5.54074837 5 9 C4.01 9 3.02 9 2 9 C0.14223235 5.86501708 -0.20140476 3.62528568 0 0 Z " fill="#666663" transform="translate(228,218)"/>
<path d="M0 0 C0.763125 0.20625 1.52625 0.4125 2.3125 0.625 C2.3125 1.615 2.3125 2.605 2.3125 3.625 C-0.3275 2.965 -2.9675 2.305 -5.6875 1.625 C-2.6875 -0.375 -2.6875 -0.375 0 0 Z " fill="#696865" transform="translate(461.6875,208.375)"/>
</svg>
